<?xml version="1.0" encoding="UTF-8" standalone="no"?>
<!-- Uploaded to: SVG Repo, www.svgrepo.com, Generator: SVG Repo Mixer Tools -->

<svg
   xmlns:dc="http://purl.org/dc/elements/1.1/"
   xmlns:cc="http://creativecommons.org/ns#"
   xmlns:rdf="http://www.w3.org/1999/02/22-rdf-syntax-ns#"
   xmlns:svg="http://www.w3.org/2000/svg"
   xmlns="http://www.w3.org/2000/svg"
   xmlns:sodipodi="http://sodipodi.sourceforge.net/DTD/sodipodi-0.dtd"
   xmlns:inkscape="http://www.inkscape.org/namespaces/inkscape"
   width="800px"
   height="800px"
   viewBox="0 0 24 24"
   fill="none"
   version="1.1"
   id="svg6"
   sodipodi:docname="back-btn.svg"
   inkscape:version="0.92.5 (2060ec1f9f, 2020-04-08)">
  <metadata
     id="metadata12">
    <rdf:RDF>
      <cc:Work
         rdf:about="">
        <dc:format>image/svg+xml</dc:format>
        <dc:type
           rdf:resource="http://purl.org/dc/dcmitype/StillImage" />
        <dc:title></dc:title>
      </cc:Work>
    </rdf:RDF>
  </metadata>
  <defs
     id="defs10" />
  <sodipodi:namedview
     pagecolor="#ffffff"
     bordercolor="#666666"
     borderopacity="1"
     objecttolerance="10"
     gridtolerance="10"
     guidetolerance="10"
     inkscape:pageopacity="0"
     inkscape:pageshadow="2"
     inkscape:window-width="1920"
     inkscape:window-height="1053"
     id="namedview8"
     showgrid="false"
     inkscape:zoom="0.98986328"
     inkscape:cx="400"
     inkscape:cy="400"
     inkscape:window-x="0"
     inkscape:window-y="0"
     inkscape:window-maximized="1"
     inkscape:current-layer="svg6" />
  <path
     d="M9.57909 4.83828C10.5644 4.07194 12 4.77409 12 6.02231V12V17.9777C12 19.2259 10.5644 19.928 9.57909 19.1617L1.38606 12.7893C1.14247 12.5999 1 12.3086 1 12C1 11.6914 1.14247 11.4001 1.38606 11.2106L9.57909 4.83828Z"
     fill="#000000"
     id="path2"
     style="fill:#138f13;fill-opacity:0.87058824" />
  <path
     d="M12 12C12 12.3086 12.1425 12.5999 12.3861 12.7893L20.5791 19.1617C21.5644 19.928 23 19.2259 23 17.9777V6.02231C23 4.77409 21.5644 4.07194 20.5791 4.83828L12.3861 11.2106C12.1425 11.4001 12 11.6914 12 12Z"
     fill="#000000"
     id="path4"
     style="fill:#138f13;fill-opacity:0.87058824" />
</svg>
